<?xml version="1.0" standalone="no"?><!DOCTYPE svg PUBLIC "-//W3C//DTD SVG 1.1//EN" "http://www.w3.org/Graphics/SVG/1.1/DTD/svg11.dtd"><svg t="1647960551693" class="icon" viewBox="0 0 1114 1024" version="1.1" xmlns="http://www.w3.org/2000/svg" p-id="2598" width="26.109375" height="24" xmlns:xlink="http://www.w3.org/1999/xlink"><defs><style type="text/css"></style></defs><path d="M412.43236215 880.21486555h-7.85199339c-19.62998309-3.92599633-35.33396983-15.70398675-43.18596322-31.40797352l-27.48197645-66.74194336h-62.81594705c-70.66793969 0-129.55789039-58.88994998-129.55788966-129.55789038V271.68538194c0-74.59393674 58.88994998-129.55789039 129.55788966-129.55789039h526.08355351c70.66793969 0 129.55789039 54.96395365 129.55789039 129.55789039v380.82167634c0 70.66793969-58.88994998 129.55789039-129.55789039 129.55789039h-282.6717602l-58.88994997 78.51993306c-7.85199338 11.77798971-23.55598013 19.62998309-43.18596323 19.62998381z m-141.33588011-679.19742403c-39.25996689 0-70.66793969 31.40797353-70.66793967 70.66794042v380.82167635c0 39.25996689 31.40797353 70.66793969 70.66793967 70.66794039h102.07591322l39.25996689 94.22391984 70.66794042-94.22391984h310.15373665c39.25996689 0 70.66793969-31.40797353 70.66793969-70.66794039V271.68538194c0-39.25996689-31.40797353-70.66793969-70.66793969-70.66794042H271.09648204zM346.41018531 337.51125953h374.80181521a30.71001833 30.71001833 0 0 1 0 61.4418473H346.41018531a30.71001833 30.71001833 0 1 1 0-61.4418473z m0.23992193 202.23245021h190.06186059a30.97175162 30.97175162 0 1 1 0 61.89988056H346.67191787a30.97175162 30.97175162 0 1 1 0-61.89988056z" fill="#515151" p-id="2599"></path></svg>