<svg xmlns="http://www.w3.org/2000/svg" data-name="Layer 1" width="1146.31828" height="801.00361" viewBox="0 0 1146.31828 801.00361" xmlns:xlink="http://www.w3.org/1999/xlink"><path d="M1050.69918,514.5082a456.24913,456.24913,0,0,1-37.38013-261.87c3.6001-23.1,9.44006-46.85,24.43018-64.79,14.38989-17.23,39.34985-27.37,60.0299-19.29-13.56994-29.61-47.76-46.5-80.59-47.33-34.09-.86-66.92,12.5-97.25,28.1-30.33,15.6-59.65,33.81006-92.21,43.99-53.5,16.72-111.91,10.34-165.5-6.09-53.58-16.44-103.62-42.47-154.62-65.71-51.01-23.24-104.17-44.03-160.01-48.91-55.84-4.87-115.25,7.89-157.24,45.01s-61.87,101.28-38.27,152.11c14.25,30.7,42.22,54.32,52.04,86.7,12.32,40.65-7.08,83.96-30.41,119.45-23.34,35.49-51.8,69.58-60.47,111.16-8.01,38.38,2.72,78.02,24.05,111.38a197.34468,197.34468,0,0,0,35.74,41.61c43.09,37.91,98.77,58.15,154.17,73.13,200.27,54.17,416.13,49.29,613.75-13.88,34.99-11.18,69.95-24.43,99.32-46.48,19.16-14.38,35.83-33.02,46.39-54.35a114.10574,114.10574,0,0,0,11.13-36.18005C1104.43917,610.17819,1072.9692,562.05819,1050.69918,514.5082Z" transform="translate(-26.84086 -49.49819)" fill="#6c63ff"/><g opacity="0.17"><path d="M890.75032,246.45145c9.64171-4.20394-9.91163-6.65119-32.09585-7.45582s-49.02061-.76011-63.19756-3.04875c-13.71114-2.21343-12.7009-6.14907-13.85427-9.71489s-6.42446-7.222-27.81928-8.0147c-26.6607-.98774-70.62581,2.81434-90.75171.53173-18.78121-2.13011-7.61723-8.81182-35.00344-9.06755-15.63837-.146-35.7849,2.05682-53.18577,2.58844-16.33647.49909-28.42216-.53441-36.90357-1.924s-14.38875-3.15126-23.93413-4.37864c-25.06068-3.2224-74.09133-2.13925-117.853,1.99071s-81.27344,10.89816-102.42889,17.60175-27.00029,13.30376-22.07239,18.90071c3.14674,3.574,11.19915,6.91585,30.73235,8.352,36.53555,2.68621,101.58387-1.9375,139.33713.50645,21.0415,1.36213,30.3764,4.73924,48.83812,6.58716,19.83407,1.98528,48.86935,2.09051,77.39656,2.04341,59.39721-.09807,120.3137-.70829,182.42994-1.82747,25.94486-.46745,53.13-1.0752,80.73761-3.30289s55.76623-6.52591,61.59076-10.5553" transform="translate(-26.84086 -49.49819)" fill="#fff"/></g><path d="M1099.25911,172.04818c-.46-1.18-.96-2.35-1.48-3.49.84.33,1.68006.69,2.51,1.08Z" transform="translate(-26.84086 -49.49819)" fill="#6c63ff"/><path d="M648.74482,314.5843c-7.66935-12.68445-16.75721-26.22767-30.98955-30.36953-16.482-4.7965-33.41319,4.73193-47.77473,14.13453a1392.15692,1392.15692,0,0,0-123.89338,91.28311l.04331.49239q46.22556-3.18781,92.451-6.37555c22.26532-1.53546,45.29557-3.2827,64.97195-13.8156,7.46652-3.99683,14.74475-9.33579,23.20555-9.70782,10.51175-.46217,19.67733,6.87923,26.8802,14.54931,42.60732,45.371,54.937,114.7541,102.73817,154.61592A1516.99458,1516.99458,0,0,0,648.74482,314.5843Z" transform="translate(-26.84086 -49.49819)" fill="#f2f2f2"/><path d="M910.64576,699.4127c-4.71168-5.94958-6.63691-7.343-11.28457-13.34761Q842.5968,612.64872,792.65327,534.27272q-33.92353-53.23005-64.48275-108.50439-14.54863-26.27808-28.29961-52.96872-10.67043-20.6952-20.8646-41.63793c-1.94357-3.98781-3.83209-7.99393-5.71122-12.00922-4.42788-9.44232-8.7734-18.93047-13.43942-28.24449-5.31687-10.61571-11.78905-21.74485-21.55259-28.877a29.4049,29.4049,0,0,0-15.31855-5.89457c-7.948-.51337-15.28185,2.76854-22.17569,6.35294-50.43858,26.301-97.65921,59.27589-140.36959,96.79771A730.77781,730.77781,0,0,0,346.39748,485.87843c-1.008,1.43927-3.39163.06418-2.37419-1.38422q6.00935-8.49818,12.25681-16.81288A734.81742,734.81742,0,0,1,543.87972,292.6956q18.24825-11.82579,37.18269-22.54245c6.36206-3.60275,12.75188-7.15967,19.25136-10.49653,6.37147-3.27274,13.13684-6.21547,20.41563-6.32547,24.77011-.385,37.5954,27.667,46.40506,46.54248q4.15283,8.9106,8.40636,17.76626,16.07481,33.62106,33.38729,66.628,10.68453,20.379,21.83683,40.51955,34.7071,62.71816,73.77854,122.897c34.5059,53.1429,68.73651,100.08874,108.04586,149.78473C913.67124,698.84433,911.73706,700.80615,910.64576,699.4127Z" transform="translate(-26.84086 -49.49819)" fill="#e4e4e4"/><path d="M457.9912,345.4352c-1.43911-1.60428-2.86926-3.20856-4.31777-4.81284-11.42244-12.63259-23.6788-25.11847-39.3644-32.36067a57.11021,57.11021,0,0,0-23.92678-5.54622c-8.56213.02753-16.93178,2.27348-24.84307,5.41792-3.74034,1.49428-7.39831,3.19021-11.00078,4.99614-4.11634,2.07182-8.15927,4.28118-12.1834,6.50883q-11.33112,6.27044-22.36816,13.0909-21.9606,13.5722-42.54565,29.21623-10.67111,8.11311-20.90175,16.75788-9.51557,8.03052-18.64618,16.492c-1.30168,1.20091-3.24526-.74255-1.94358-1.94347,1.60428-1.49428,3.22692-2.97938,4.84955-4.44612q6.87549-6.21547,13.9712-12.19258,12.93921-10.91827,26.54851-20.99312,21.16295-15.67614,43.78289-29.2254,11.3036-6.76547,22.91829-12.9626c2.33793-1.24674,4.70317-2.466,7.09571-3.6211a113.11435,113.11435,0,0,1,16.86778-6.86631,60.00626,60.00626,0,0,1,25.476-2.50266,66.32725,66.32725,0,0,1,23.50512,8.1314c15.40091,8.60812,27.34573,21.919,38.97005,34.90916C461.10844,344.80265,459.17382,346.75529,457.9912,345.4352Z" transform="translate(-26.84086 -49.49819)" fill="#e4e4e4"/><path d="M773.55166,476.34216l36.90462-13.498,18.32327-6.70182c5.96758-2.18267,11.92082-4.66747,18.08989-6.23037a28.53868,28.53868,0,0,1,16.37355.20862,37.73731,37.73731,0,0,1,12.771,7.91667,103.63871,103.63871,0,0,1,10.47488,11.18642c3.98932,4.79426,7.9197,9.63878,11.86772,14.46706q24.44135,29.89093,48.56306,60.04134,24.12118,30.14991,47.91981,60.556,23.85681,30.48042,47.38548,61.21573,2.8823,3.76519,5.75967,7.53415c1.0598,1.38809,3.44948.01962,2.37471-1.38807q-23.70225-31.04441-47.73491-61.83464-24.09177-30.86383-48.51646-61.46586-24.42423-30.60142-49.17854-60.93744-6.167-7.5576-12.35444-15.09858c-3.47954-4.24072-6.91984-8.52718-10.73629-12.47426-7.00538-7.24516-15.75772-13.64794-26.23437-13.82167-6.15972-.10214-12.121,1.85248-17.844,3.92288-6.16967,2.232-12.32455,4.50571-18.48632,6.7594L782.11123,470.2921l-9.29068,3.39811c-1.64874.603-.9365,3.26189.73111,2.65195Z" transform="translate(-26.84086 -49.49819)" fill="#e4e4e4"/><path d="M409.45248,324.15733c-18.75411-9.63866-42.77137-7.75087-60.00507,4.29119A855.84532,855.84532,0,0,1,446.818,351.17434C433.53537,343.3904,423.14521,331.19475,409.45248,324.15733Z" transform="translate(-26.84086 -49.49819)" fill="#f2f2f2"/><path d="M349.26282,328.41534,345.6524,331.35c1.22123-1.02713,2.4908-1.99013,3.795-2.90144C349.3858,328.43789,349.32442,328.426,349.26282,328.41534Z" transform="translate(-26.84086 -49.49819)" fill="#f2f2f2"/><path d="M874.62436,476.477c-3.63279-4.42206-7.56046-9.05222-12.99421-10.84836l-5.07308.20009a575.43629,575.43629,0,0,0,153.26729,175.22056Q942.22437,558.76317,874.62436,476.477Z" transform="translate(-26.84086 -49.49819)" fill="#f2f2f2"/><path d="M1086.66915,698.4482c-10.56006,21.33-27.23,39.97-46.39,54.35-29.37,22.05-64.33,35.3-99.32,46.48-197.62,63.17-413.48,68.05-613.75,13.88-55.4-14.98-111.08-35.22-154.17-73.13a197.34468,197.34468,0,0,1-35.74-41.61c57.35-31.52,126.86-43.4,193.19-41.95,95.09,2.08,187.96,27.46,282.16,40.59a1102.669,1102.669,0,0,0,334.04-4.6c38.31994-6.43,77.98-14.84,115.49-4.66A95.14954,95.14954,0,0,1,1086.66915,698.4482Z" transform="translate(-26.84086 -49.49819)" fill="#3f3d56"/><circle cx="179.31828" cy="51" r="51" fill="#ccc"/><path d="M362.30892,97.84042C348.81185,83.6816,333.13643,70.765,314.57961,63.93948a76.71521,76.71521,0,0,0-15.98633-4.01734c-.04388-.006-.08545.00287-.12909-.00067a2.35576,2.35576,0,0,0-.26965-.05292,61.5388,61.5388,0,0,0-22.84131,1.379,63.10735,63.10735,0,0,0-10.63519,3.7049,93.00467,93.00467,0,0,0-9.97943,5.65557A64.90832,64.90832,0,0,1,232.6863,78.8348a74.1877,74.1877,0,0,1-11.84406,1.16248c-3.44714.06915-6.698.1889-9.964,1.43426a23.91573,23.91573,0,0,0-14.56494,15.77051,1.55078,1.55078,0,0,0,.68933,1.694c.88349.63275,1.74476,1.35065,2.673,1.91437a8.33922,8.33922,0,0,0,2.611.71209q2.21366.46711,4.43292.90693,8.17584,1.61992,16.41962,2.86792,16.681,2.5252,33.54217,3.55755a373.48132,373.48132,0,0,0,67.51026-2.029A374.77144,374.77144,0,0,0,361.647,100.3475,1.5139,1.5139,0,0,0,362.30892,97.84042Z" transform="translate(-26.84086 -49.49819)" fill="#f0f0f0"/><path d="M208.57961,131.93948a76.71521,76.71521,0,0,0-15.98633-4.01734c-.04388-.006-.08545.00287-.12909-.00067a2.35576,2.35576,0,0,0-.26965-.05292,61.5388,61.5388,0,0,0-22.84131,1.379,63.10735,63.10735,0,0,0-10.63519,3.7049,93.00467,93.00467,0,0,0-9.97943,5.65557,64.90832,64.90832,0,0,1-22.05231,8.22681,74.1877,74.1877,0,0,1-11.84406,1.16248c-3.44714.06915-6.698.1889-9.964,1.43426a23.91573,23.91573,0,0,0-14.56494,15.77051,1.55078,1.55078,0,0,0,.68933,1.694c.88349.63275,1.74476,1.35065,2.673,1.91437a8.33922,8.33922,0,0,0,2.611.71209q2.21366.46712,4.43292.90693,8.17584,1.61992,16.41962,2.86792,16.681,2.5252,33.54217,3.55755a373.48132,373.48132,0,0,0,67.51026-2.029A374.77144,374.77144,0,0,0,255.647,168.3475a1.5139,1.5139,0,0,0,.66193-2.50708C242.81185,151.6816,227.13643,138.765,208.57961,131.93948Z" transform="translate(-26.84086 -49.49819)" fill="#f0f0f0"/><polygon points="1047.411 588.142 1074.576 567.518 1087.816 580.759 1043.563 611.042 1047.411 588.142" fill="#2f2e41"/><path d="M1048.91635,694.42781H955.99269l3.25907-10.55987,0,0c20.1993-7.31227,8.85333-23.02957,28.06751-32.63666,46.9968-23.4984,65.19118-93.62006,58.30932-121.33935l30.798-1.30221S1118.95877,649.37476,1048.91635,694.42781Z" transform="translate(-26.84086 -49.49819)" fill="#2f2e41"/><path d="M1128.24653,644.78888a15.61893,15.61893,0,0,1-20.18272.37759l-.0604-.04961-.00207-.07767a14.96483,14.96483,0,0,0-.6-3.81936,10.69077,10.69077,0,0,1-.38818,2.64366l-.07784.28991-.20873-.21549c-.18027-.18589-.35474-.37472-.51859-.561a15.75088,15.75088,0,0,1-2.399-3.63269,45.91623,45.91623,0,0,0-12.74-15.87972,22.29237,22.29237,0,0,1-2.6727-2.57172,22.03415,22.03415,0,0,1,27.66955-33.56911l.13767.0806-.07148.1425a11.47756,11.47756,0,0,1-2.04788,2.954,14.96829,14.96829,0,0,0,3.15395-2.27865l.10006-.09436.11337.07818a22.12793,22.12793,0,0,1,4.0294,3.5867l.12844.14726a9.83643,9.83643,0,0,0,7.28375,3.36123,15.614,15.614,0,0,1,15.11947,18.29291l-.01769.10315-.10034.0304a13.39866,13.39866,0,0,1-5.45694.68088,15.22208,15.22208,0,0,0,4.86061,1.2174l.21654.01718-.06874.20619a15.6035,15.6035,0,0,1-4.50339,6.79l-.05928.05187-.06294.05509a15.3329,15.3329,0,0,0-5.297,10.64272A15.73345,15.73345,0,0,1,1128.24653,644.78888Z" transform="translate(-26.84086 -49.49819)" fill="#3f3d56"/><path d="M1131.089,639.76934a15.57418,15.57418,0,0,1-.1756,1.67894,15.78521,15.78521,0,0,0,2.53772-7.82047c.02071-.42637.06546-.8511.12549-1.27393A14.8141,14.8141,0,0,0,1131.089,639.76934Z" transform="translate(-26.84086 -49.49819)" opacity="0.15"/><path d="M1136.00331,620.789a15.19815,15.19815,0,0,0,3.88418,1.09822,15.63,15.63,0,0,0,1.42322-1.73647A13.24363,13.24363,0,0,1,1136.00331,620.789Z" transform="translate(-26.84086 -49.49819)" opacity="0.15"/><path d="M1141.72736,615.66082a15.70907,15.70907,0,0,1-.11112,4.05194,15.52908,15.52908,0,0,0,1.75758-3.62455l.06874-.2062-.21655-.01718A15.09472,15.09472,0,0,1,1141.72736,615.66082Z" transform="translate(-26.84086 -49.49819)" opacity="0.15"/><path d="M1140.28241,600.83967a15.65079,15.65079,0,0,0-11.46149-5.29958,9.83649,9.83649,0,0,1-7.28378-3.36124l-.12843-.14726a22.12785,22.12785,0,0,0-4.02939-3.58669l-.11338-.07817-.10005.09434a14.9676,14.9676,0,0,1-3.154,2.27865,11.47832,11.47832,0,0,0,2.04794-2.954l.07146-.1425-.13766-.08059a22.01777,22.01777,0,0,0-32.62113,14.2542,22.02182,22.02182,0,0,1,30.259-8.11268l.13765.08059-.07145.1425a11.47814,11.47814,0,0,1-2.04794,2.954,14.96754,14.96754,0,0,0,3.154-2.27865l.10006-.09434.11338.07817a22.12857,22.12857,0,0,1,4.02939,3.5867l.12843.14725a9.83643,9.83643,0,0,0,7.28377,3.36124,15.61675,15.61675,0,0,1,15.10347,12.83488,18.92714,18.92714,0,0,0,2.26005-.55l.10034-.03039.01776-.10314A15.554,15.554,0,0,0,1140.28241,600.83967Z" transform="translate(-26.84086 -49.49819)" opacity="0.15"/><path d="M1173.15913,536.54065a50.29141,50.29141,0,0,1-42.007,49.59965l-.2484.04053-.19219-.16016a48.18565,48.18565,0,0,0-10.51008-6.67159,34.42316,34.42316,0,0,1,5.5662,6.56047l.53537.80469-.96485.04641c-.8328.04053-1.66038.0608-2.45919.0608a50.71554,50.71554,0,0,1-13.88445-1.92513c-20.51748-5.83748-42.55022-6.83567-65.48571-2.96711a71.77856,71.77856,0,0,1-11.90147.993A70.94787,70.94787,0,0,1,1009.287,444.63723l.48765-.16146.19251.47589a36.95659,36.95659,0,0,1,2.787,11.23306,48.19635,48.19635,0,0,0,1.19789-12.47116l-.01536-.44255.43013-.10786a71.24939,71.24939,0,0,1,17.24051-2.1147l.62918.00262a31.67228,31.67228,0,0,0,23.616-10.46237,50.27568,50.27568,0,0,1,76.38016,2.34611l.2118.26213-.1399.30723c-2.93769,6.47484-6.13818,11.19189-9.95836,14.64143a49.01343,49.01343,0,0,0,13.27978-9.16282l.502-.487.35234.60466A50.24214,50.24214,0,0,1,1143.32,464.4278l-.00065.25363c-.00065.08956-.00065.17977-.00065.26932,0,13.61317,5.26419,26.51577,14.46689,35.43934A50.66021,50.66021,0,0,1,1173.15913,536.54065Z" transform="translate(-26.84086 -49.49819)" fill="#3f3d56"/><g opacity="0.15"><path d="M1111.68868,417.71713a35.519,35.519,0,0,1-6.33509,7.77159,48.88929,48.88929,0,0,0,9.89823-6.1865Q1113.50228,418.44038,1111.68868,417.71713Z" transform="translate(-26.84086 -49.49819)"/><path d="M1140.79293,477.73323a50.48191,50.48191,0,0,1,7.22981,8.80775,51.39288,51.39288,0,0,1-4.70405-21.59022c0-.08957,0-.17978.00065-.26932l.00064-.25364a50.24245,50.24245,0,0,0-6.83956-25.32735l-.35235-.60468-.50207.487a49.12616,49.12616,0,0,1-9.17043,6.983A48.97185,48.97185,0,0,0,1140.79293,477.73323Z" transform="translate(-26.84086 -49.49819)"/><path d="M1126.32733,441.77093l-.00065.25364c-.00064.08954-.00064.17975-.00064.26931,0,.49355.00894.98585.02272,1.47739a52.3648,52.3648,0,0,0,5.95587-10.26709l.13985-.30725-.21176-.26212a50.68811,50.68811,0,0,0-9.096-8.79733A50.35621,50.35621,0,0,1,1126.32733,441.77093Z" transform="translate(-26.84086 -49.49819)"/><path d="M1157.78559,500.3901a45.45934,45.45934,0,0,1-6.40838-7.79666,50.2297,50.2297,0,0,1-37.21772,70.89l-.24841.04054-.19217-.16016a48.188,48.188,0,0,0-10.5101-6.67159,34.42262,34.42262,0,0,1,5.56617,6.56046l.5354.80471-.96482.0464c-.83286.04054-1.66041.0608-2.4592.0608a50.71549,50.71549,0,0,1-13.88448-1.92514c-20.51749-5.83747-42.55022-6.83566-65.4857-2.9671a71.7793,71.7793,0,0,1-11.90145.993,70.62389,70.62389,0,0,1-47.12-17.969,71.01118,71.01118,0,0,0,64.1127,40.6259,71.77947,71.77947,0,0,0,11.90145-.99294c22.93547-3.86857,44.96821-2.87037,65.4857,2.96709a50.71543,50.71543,0,0,0,13.88448,1.92514c.79878,0,1.62634-.02026,2.45919-.0608l.96483-.0464-.5354-.80471a34.42263,34.42263,0,0,0-5.56618-6.56045,48.18774,48.18774,0,0,1,10.51011,6.67159l.19217.16016.24841-.04055a50.25392,50.25392,0,0,0,26.63344-85.75019Z" transform="translate(-26.84086 -49.49819)"/></g><polygon points="134.035 560.973 97.223 533.025 79.28 550.968 139.25 592.007 134.035 560.973" fill="#2f2e41"/><path d="M195.21,687.42781h125.9266L316.72,673.11747l0,0c-27.37332-9.9093-11.99769-31.20879-38.036-44.228-63.68827-31.84414-88.3446-126.87035-79.01856-164.43447l-41.73625-1.76471S100.29113,626.37364,195.21,687.42781Z" transform="translate(-26.84086 -49.49819)" fill="#2f2e41"/><path d="M80.55365,605.25219a20.7786,20.7786,0,0,0-7.17833-14.42261c-.0283-.02489-.05681-.05-.08529-.07465l-.08034-.0703a21.14539,21.14539,0,0,1-6.10283-9.20148l-.09315-.27942.29345-.02329a20.6283,20.6283,0,0,0,6.58691-1.64977,18.15726,18.15726,0,0,1-7.395-.9227l-.136-.0412-.024-.13979a21.15953,21.15953,0,0,1,20.48932-24.78985,13.32987,13.32987,0,0,0,9.87066-4.555l.17406-.19956a29.9868,29.9868,0,0,1,5.46049-4.86055l.15364-.106.13559.12786a20.2845,20.2845,0,0,0,4.27411,3.088,15.554,15.554,0,0,1-2.77519-4.00312l-.09688-.19312.18657-.10923A29.85984,29.85984,0,0,1,141.70818,588.318a30.209,30.209,0,0,1-3.62195,3.48511,62.224,62.224,0,0,0-17.26483,21.51959,21.34447,21.34447,0,0,1-3.251,4.92289c-.222.25244-.45848.50834-.70277.76026l-.28286.292-.10549-.39287a14.48742,14.48742,0,0,1-.526-3.58259,20.27961,20.27961,0,0,0-.813,5.17585l-.00281.10525-.08185.06724a21.15037,21.15037,0,0,1-34.50192-15.41853Z" transform="translate(-26.84086 -49.49819)" fill="#3f3d56"/><path d="M83.85266,613.35673a21.10374,21.10374,0,0,0,.238,2.27524,21.39156,21.39156,0,0,1-3.439-10.598c-.02806-.57781-.08871-1.15339-.17006-1.72639A20.07562,20.07562,0,0,1,83.85266,613.35673Z" transform="translate(-26.84086 -49.49819)" opacity="0.15"/><path d="M77.193,587.63524a20.59681,20.59681,0,0,1-5.2637,1.48826,21.18029,21.18029,0,0,1-1.92868-2.3532A17.94731,17.94731,0,0,0,77.193,587.63524Z" transform="translate(-26.84086 -49.49819)" opacity="0.15"/><path d="M69.436,580.68579a21.28893,21.28893,0,0,0,.1506,5.491,21.04389,21.04389,0,0,1-2.3818-4.91186l-.09316-.27943.29346-.02329A20.4517,20.4517,0,0,0,69.436,580.68579Z" transform="translate(-26.84086 -49.49819)" opacity="0.15"/><path d="M71.39415,560.60073a21.20931,21.20931,0,0,1,15.53218-7.18179,13.33,13.33,0,0,0,9.87069-4.555l.174-.19955a29.98717,29.98717,0,0,1,5.46048-4.86056l.15364-.10593.13559.12785a20.28377,20.28377,0,0,0,4.27415,3.08794,15.55474,15.55474,0,0,1-2.77529-4.00312l-.09683-.19312.18655-.10921A29.83764,29.83764,0,0,1,148.51627,561.925a29.84315,29.84315,0,0,0-41.00585-10.994l-.18655.10921.09683.19311a15.5548,15.5548,0,0,0,2.77529,4.00313,20.28412,20.28412,0,0,1-4.27415-3.08794l-.13559-.12786-.15364.10594a29.98711,29.98711,0,0,0-5.46048,4.86055l-.174.19956a13.33,13.33,0,0,1-9.87069,4.555A21.16316,21.16316,0,0,0,69.65975,579.135a25.64845,25.64845,0,0,1-3.06273-.74529l-.136-.04118-.02407-.13978A21.07824,21.07824,0,0,1,71.39415,560.60073Z" transform="translate(-26.84086 -49.49819)" opacity="0.15"/><path d="M47.67454,424.47529c12.47114-12.09289,19.605-29.578,19.605-48.026,0-.12136,0-.24361-.00089-.365l-.00088-.34372a68.08611,68.08611,0,0,1,9.26876-34.32266l.47748-.81942.68034.66a66.42122,66.42122,0,0,0,17.99625,12.41711c-5.177-4.67469-9.51414-11.06706-13.4952-19.8415l-.18957-.41636.287-.35523a68.13168,68.13168,0,0,1,103.50749-3.17935,42.9211,42.9211,0,0,0,32.00348,14.1782l.85264-.00355a96.55467,96.55467,0,0,1,23.36369,2.86576l.58289.14617-.02081.59973a65.31307,65.31307,0,0,0,1.62334,16.90044,50.08227,50.08227,0,0,1,3.77686-15.22262l.26089-.64491.66085.21881a96.14585,96.14585,0,0,1-30.24771,187.39848A97.27192,97.27192,0,0,1,202.538,534.974c-31.0813-5.24253-60.93923-3.88982-88.74374,4.02092a68.72787,68.72787,0,0,1-18.81567,2.60886c-1.08252,0-2.204-.02747-3.33261-.08239l-1.30753-.0629L91.064,540.368a46.64968,46.64968,0,0,1,7.5431-8.8905,65.29981,65.29981,0,0,0-14.24286,9.0411l-.26045.217-.33662-.05492A68.10219,68.10219,0,0,1,47.67454,424.47529Z" transform="translate(-26.84086 -49.49819)" fill="#3f3d56"/><g opacity="0.15"><path d="M110.14328,312.44a48.13438,48.13438,0,0,0,8.58508,10.53176,66.25283,66.25283,0,0,1-13.4137-8.38371Q107.68556,313.42016,110.14328,312.44Z" transform="translate(-26.84086 -49.49819)"/><path d="M70.70231,393.77157a68.411,68.411,0,0,0-9.79756,11.93592,69.64577,69.64577,0,0,0,6.37475-29.25825c0-.12137,0-.24362-.00088-.365l-.00087-.34372a68.08661,68.08661,0,0,1,9.26871-34.32266l.4775-.81944.68039.66a66.5738,66.5738,0,0,0,12.42741,9.46305C88.97194,367.31049,82.046,382.77189,70.70231,393.77157Z" transform="translate(-26.84086 -49.49819)"/><path d="M90.30555,345.03683l.00087.34372c.00088.12134.00088.24359.00088.365,0,.66884-.01212,1.336-.0308,2.0021A70.9624,70.9624,0,0,1,82.20534,333.834l-.18953-.41637.287-.35522a68.69044,68.69044,0,0,1,12.32659-11.92181A68.24086,68.24086,0,0,0,90.30555,345.03683Z" transform="translate(-26.84086 -49.49819)"/><path d="M47.67451,424.4753a61.60525,61.60525,0,0,0,8.6844-10.56575,68.06938,68.06938,0,0,0,50.436,96.06741l.33664.05494.26042-.217a65.30253,65.30253,0,0,1,14.24289-9.04108,46.64767,46.64767,0,0,0-7.54306,8.89047l-.72556,1.09052,1.3075.06287c1.12865.05494,2.25012.08239,3.33261.08239a68.72762,68.72762,0,0,0,18.81572-2.60886c27.80451-7.91072,57.66244-9.26344,88.74372-4.0209a97.27262,97.27262,0,0,0,16.12839,1.3456,95.7069,95.7069,0,0,0,63.8553-24.35094,96.23165,96.23165,0,0,1-86.88309,55.05467A97.27245,97.27245,0,0,1,202.538,534.974c-31.08129-5.24254-60.93922-3.88982-88.74373,4.0209a68.72763,68.72763,0,0,1-18.81572,2.60887c-1.08249,0-2.204-.02746-3.33261-.0824l-1.30749-.06287L91.064,540.368a46.64834,46.64834,0,0,1,7.54306-8.89047,65.30253,65.30253,0,0,0-14.24289,9.04108l-.26042.217-.33663-.05494A68.10219,68.10219,0,0,1,47.67451,424.4753Z" transform="translate(-26.84086 -49.49819)"/></g><circle cx="460.31828" cy="185" r="5" fill="#fff"/><circle cx="834.31828" cy="305" r="3" fill="#fff"/><circle cx="892.31828" cy="170" r="3" fill="#fff"/><circle cx="355.31828" cy="80" r="3" fill="#fff"/><circle cx="325.31828" cy="201" r="3" fill="#fff"/><circle cx="179.31828" cy="170" r="3" fill="#fff"/><circle cx="696.31828" cy="195" r="3" fill="#fff"/><circle cx="1003.31828" cy="98" r="3" fill="#fff"/><path d="M328.95929,413.56327c-3.79958-7.035-4.33-16.25537.33531-22.74859a36.83843,36.83843,0,0,0,14.67507,20.5993c2.77181,1.88719,6.05124,3.69758,6.99947,6.914a8.23488,8.23488,0,0,1-.85864,6.04445,24.4571,24.4571,0,0,1-3.79505,4.95494l-.13433.50325C339.30268,425.75443,332.75886,420.59829,328.95929,413.56327Z" transform="translate(-26.84086 -49.49819)" fill="#3f3d56"/><path d="M910.95929,612.56327c-3.79958-7.035-4.33-16.25537.33531-22.74859a36.83843,36.83843,0,0,0,14.67507,20.5993c2.77181,1.88719,6.05124,3.69758,6.99947,6.914a8.23488,8.23488,0,0,1-.85864,6.04445,24.4571,24.4571,0,0,1-3.795,4.95494l-.13433.50325C921.30268,624.75443,914.75886,619.59829,910.95929,612.56327Z" transform="translate(-26.84086 -49.49819)" fill="#3f3d56"/><path d="M591.95929,449.56327c-3.79958-7.035-4.33-16.25537.33531-22.74859a36.83843,36.83843,0,0,0,14.67507,20.5993c2.77181,1.88719,6.05124,3.69758,6.99947,6.914a8.23488,8.23488,0,0,1-.85864,6.04445,24.4571,24.4571,0,0,1-3.795,4.95494l-.13433.50325C602.30268,461.75443,595.75886,456.59829,591.95929,449.56327Z" transform="translate(-26.84086 -49.49819)" fill="#3f3d56"/><path d="M287.95929,565.56327c-3.79958-7.035-4.33-16.25537.33531-22.74859a36.83843,36.83843,0,0,0,14.67507,20.5993c2.77181,1.88719,6.05124,3.69758,6.99947,6.914a8.23488,8.23488,0,0,1-.85864,6.04445,24.4571,24.4571,0,0,1-3.79505,4.95494l-.13433.50325C298.30268,577.75443,291.75886,572.59829,287.95929,565.56327Z" transform="translate(-26.84086 -49.49819)" fill="#3f3d56"/><path d="M249.95929,651.56327c-3.79958-7.035-4.33-16.25537.33531-22.74859a36.83843,36.83843,0,0,0,14.67507,20.5993c2.77181,1.88719,6.05124,3.69758,6.99947,6.914a8.23488,8.23488,0,0,1-.85864,6.04445,24.4571,24.4571,0,0,1-3.79505,4.95494l-.13433.50325C260.30268,663.75443,253.75886,658.59829,249.95929,651.56327Z" transform="translate(-26.84086 -49.49819)" fill="#3f3d56"/><rect x="843.31828" y="68" width="11" height="589" fill="#3f3d56"/><rect x="813.31828" y="20" width="72" height="72" rx="35.99996" fill="#ff6582"/><path d="M418.64263,424.1385c0,11.47771,12.51572,21.67823,23.99344,21.67823s17.571-10.20052,17.571-21.67823a20.78224,20.78224,0,0,0-41.56448,0Z" transform="translate(-26.84086 -49.49819)" fill="#2f2e41"/><polygon points="398.471 484.489 437.067 483.005 439.294 442.925 394.76 442.925 398.471 484.489" fill="#ffb8b8"/><path d="M400.81364,561.4928a6.18231,6.18231,0,0,0-.36494-9.4728l7.00739-20.82235-11.03775,2.917-4.96213,19.32605a6.21581,6.21581,0,0,0,9.35743,8.05215Z" transform="translate(-26.84086 -49.49819)" fill="#ffb6b6"/><circle cx="415.75835" cy="381.62478" r="14.69804" fill="#ffb8b8"/><path d="M442.96047,429.64379l-10.73253-.28426a1.504,1.504,0,0,1-1.28014-.78738l-3.58787-6.65514a1.49783,1.49783,0,0,1,.39563-1.89138L441.79818,409.047a1.49679,1.49679,0,0,1,1.25618-.28037l11.34184,2.58422a1.499,1.499,0,0,1,1.1066,1.04314l4.4413,15.29492a1.49935,1.49935,0,0,1-1.51389,1.916l-5.5602-.27779a1.50724,1.50724,0,0,1-1.34747-1.0276l-.23052-.69867a.17342.17342,0,0,0-.338.05439,1.49974,1.49974,0,0,1-1.57346,1.4977l-1.84088-.09194a1.4954,1.4954,0,0,1-1.396-1.205l-.79385-3.99256a.1732.1732,0,0,0-.34188.01359l-.51866,4.442a1.492,1.492,0,0,1-1.48734,1.32546Z" transform="translate(-26.84086 -49.49819)" fill="#2f2e41"/><path d="M432.2515,449.58079l19.00323.25331,6.18481,7.85346,9.95684,2.3481,2.5878,14.95427c1.29375,7.47624-.07979,12.21089-3.88076,18.77751l0,0-.45522,12.91771.503.91426a2.09364,2.09364,0,0,1-.63119,2.72267h0a4.27726,4.27726,0,0,1,.11752,2.81491l-.24528.81046s-.70783,5.66261-40.83239-.29293a3.95632,3.95632,0,0,1-3.34345-3.3986h0a2.95406,2.95406,0,0,1-.547-3.4038l.08175-.16348-.412-.48529a3.177,3.177,0,0,1-.1608-3.90659h0l-5.76652-41.25217,11.91192-3.71Z" transform="translate(-26.84086 -49.49819)" fill="#2f2e41"/><path d="M419.16862,464.99288l-4.75684-3.94828s-4.22952,1.25013-7.18334,9.58077-13.08957,71.52656-13.08957,71.52656l11.87557-5.93778,16.8392-46.43085Z" transform="translate(-26.84086 -49.49819)" fill="#2f2e41"/><path d="M524.81946,532.274a6.18228,6.18228,0,0,1-7.09116-6.29147l-20.54147-7.79242,9.257-6.682,18.08733,8.42424a6.21581,6.21581,0,0,1,.28831,12.34162Z" transform="translate(-26.84086 -49.49819)" fill="#ffb6b6"/><path d="M461.88061,464.63253l3.22471-5.27425s4.40655-.18456,9.89528,6.74353c2.81373,3.55161,21.04874,34.01719,21.04874,34.01719l16.86311,14.05546-13.80628,4.93081-16.27169-6.90314-18.244-30.078Z" transform="translate(-26.84086 -49.49819)" fill="#2f2e41"/><polygon points="435.555 666.81 444.739 666.81 449.108 631.385 435.553 631.386 435.555 666.81" fill="#ffb6b6"/><polygon points="355.157 661.099 364.044 663.415 377.208 630.238 364.091 626.819 355.157 661.099" fill="#ffb6b6"/><path d="M460.11787,711.77763l14.51826-.86655v6.22026l13.80293,9.53279a3.88541,3.88541,0,0,1-2.20782,7.08274H468.9467l-2.97925-6.15279-1.16325,6.15279h-6.517Z" transform="translate(-26.84086 -49.49819)" fill="#2f2e41"/><path d="M380.13111,705.42858l14.2674,2.8235-1.569,6.01913,10.95211,12.70615a3.88541,3.88541,0,0,1-3.923,6.29683L383.133,728.91441l-1.331-6.70531-2.67759,5.66043-6.30624-1.64381Z" transform="translate(-26.84086 -49.49819)" fill="#2f2e41"/><path d="M383.1248,688.31931l26.92081-55.33021,2.11353-65.49091C406.33233,556.677,423.491,532.805,423.491,532.805v-9.24491l41.91852,7.90812v0a201.21489,201.21489,0,0,1,12.26151,73.06026L475.982,694.04734h.52987a3.31527,3.31527,0,1,1,0,6.63053H459.9355a3.31527,3.31527,0,1,1,0-6.63053h.4274L448.4631,580.16351l-13.83654,56.19881L401.189,688.1066a3.3069,3.3069,0,0,1-.26524,6.60379H384.34739a3.31182,3.31182,0,0,1-1.22259-6.39108Z" transform="translate(-26.84086 -49.49819)" fill="#2f2e41"/><path d="M382.75841,426.29647c6.19395-6.05935,10.09279-14.02773,15.22255-21.01108,5.1296-6.98327,12.35472-13.3824,21.01083-13.77026a13.03786,13.03786,0,0,1,8.16579,2.129,8.30541,8.30541,0,0,1,3.60455,7.36741c.9138-2.56674,4.99718-3.1453,6.588-.93331,1.59062,2.21191-.25722,5.89893-2.98115,5.94838l-.2671-1.05666a18.24877,18.24877,0,0,1-11.80141,7.83613,2.9783,2.9783,0,0,1-3.35526-3.85425C409.59087,410.80666,412.56052,428.25234,407,436s-21.45259,6.99551-30.82907,8.7353c-9.05466,1.68-17.85857-3.34756-25.69931-8.178A38.2715,38.2715,0,0,0,382.75841,426.29647Z" transform="translate(-26.84086 -49.49819)" fill="#2f2e41"/><path d="M732.68989,636.90373,704.47275,624.455V613.75265l10.0561-.05651a7.46918,7.46918,0,0,0,7.044-5.10714l7.06437-21.19305a7.46924,7.46924,0,0,0-7.086-9.83122H704.47275v-9.959H725.913a7.46925,7.46925,0,0,0,7.27937-5.79584l4.865-21.16286a7.46923,7.46923,0,0,0-7.27937-9.14265H704.47275v-2.48975a4.97949,4.97949,0,0,0-9.959,0v2.48975H518.1566v-2.48975a4.9795,4.9795,0,0,0-9.959,0v2.48975H487.2868a7.46923,7.46923,0,0,0-7.27937,9.14265l4.865,21.16286a7.46925,7.46925,0,0,0,7.27937,5.79584H508.1976v9.959H496.51328a7.46923,7.46923,0,0,0-7.10927,9.76l7.21041,22.37711a7.46925,7.46925,0,0,0,7.15123,5.17837l4.432-.0249V624.455l-22.82269,12.44874a7.46922,7.46922,0,0,0-7.46924,7.46922v0a7.46925,7.46925,0,0,0,7.46924,7.46925H508.1976v54.77446a4.9795,4.9795,0,0,0,9.959,0V651.84222H694.51376v54.77446a4.97949,4.97949,0,0,0,9.959,0V651.84222h28.21714a7.46925,7.46925,0,0,0,7.46925-7.46925v0A7.46922,7.46922,0,0,0,732.68989,636.90373Zm-214.53329-69.298H694.51376v9.959H518.1566Zm0,56.84925v-9.65563l176.35716-.99076V624.455Z" transform="translate(-26.84086 -49.49819)" fill="#3f3d56"/></svg>