<svg xmlns="http://www.w3.org/2000/svg" width="36" height="36" class="icon" p-id="6194" t="1642564452208" version="1.1" viewBox="0 0 1024 1024"><path fill="#FFF" d="M512 32C248 32 32 248 32 512s216 480 480 480 480-216 480-480S776 32 512 32z" p-id="6195"/><path d="M512 0C228.8 0 0 228.8 0 512s228.8 512 512 512 512-228.8 512-512S795.2 0 512 0z m0 992C248 992 32 776 32 512S248 32 512 32s480 216 480 480-216 480-480 480z" p-id="6196"/><path fill="#9DE8F7" d="M512 512m-392 0a392 392 0 1 0 784 0 392 392 0 1 0-784 0Z" p-id="6197"/><path fill="#1A1718" d="M784 496H528V240h-32v256H240v32h256v256h32V528h256z" p-id="6198"/></svg>