<svg width="276" height="104" xmlns="http://www.w3.org/2000/svg" fill="#b0bcd7" version="1.1">

    <g>
        <title>Layer 1</title>
        <circle id="thino" fill="#3688BD" r="21" cy="61" cx="242"/>
        <path id="svg_2"
              d="m93,17c1.88632,1.88632 1.24265,5.14201 1.31641,7.66016c0.02078,0.66446 0.04156,1.32893 0.06297,2.01353c0.06556,2.1295 0.12441,4.25912 0.18312,6.38881c0.04318,1.44077 0.08679,2.88152 0.13086,4.32227c0.10726,3.53827 0.20851,7.07669 0.30664,10.61523c0.4063,-0.48864 0.81259,-0.97727 1.2312,-1.48071c0.53601,-0.63672 1.07202,-1.27344 1.62427,-1.92945c0.53005,-0.63301 1.06009,-1.26602 1.6062,-1.91821c3.20833,-3.48634 6.5729,-3.80248 11.10083,-4.04663c3.22025,0.07489 4.18371,0.1928 6.875,2.125c3.14359,4.52676 3.79194,7.39503 3.73047,12.98438c0.00709,1.2955 0.01418,2.59101 0.02148,3.92578c0.00421,2.05722 -0.00231,4.11244 -0.03491,6.16943c-0.02667,1.98892 -0.00743,3.97829 0.01343,5.96729c-0.01124,1.78422 -0.01124,1.78422 -0.02271,3.60449c0.28207,0.85755 0.56413,1.71509 0.85474,2.59863c3.53509,0.51698 3.53509,0.51698 7,0c-1.36984,3.16116 -1.98906,3.99271 -5,6c-1.9375,0.33594 -1.9375,0.33594 -4,0.375c-0.68062,0.02836 -1.36125,0.05672 -2.0625,0.08594c-1.9375,-0.46094 -1.9375,-0.46094 -3.52881,-2.08911c-1.82078,-3.06568 -1.82307,-5.22733 -1.88525,-8.78199c-0.03094,-1.23685 -0.06188,-2.47371 -0.09375,-3.74804c-0.01805,-1.28842 -0.0361,-2.57684 -0.05469,-3.9043c-0.05094,-2.55346 -0.10546,-5.10686 -0.16406,-7.66016c-0.01757,-1.13187 -0.03513,-2.26375 -0.05323,-3.42993c-0.03656,-2.92274 -0.03656,-2.92274 -1.15771,-5.84741c-3.04917,-0.81311 -4.94537,-1.27139 -8,-1c-4.6366,3.19411 -6.94379,7.54566 -8,13c-0.4738,6.96631 -0.86079,13.49199 2,20c0,0.99 0,1.98 0,3c-2.59913,0.34346 -4.89823,0.46328 -7.5,0.4375c-0.71543,0.01998 -1.43086,0.03996 -2.16797,0.06055c-2.05078,-0.00196 -2.05078,-0.00196 -5.33203,-0.49805c0,-1.32 0,-2.64 0,-4c1.485,-0.495 1.485,-0.495 3,-1c0.51658,-2.23498 0.51658,-2.23498 0.51172,-4.97876c0.03593,-1.06102 0.07186,-2.12205 0.10889,-3.21522c0.02207,-1.15415 0.04415,-2.3083 0.06689,-3.49743c0.02981,-1.17497 0.05962,-2.34995 0.09033,-3.56053c0.05786,-2.48901 0.10776,-4.97822 0.15039,-7.46754c0.07156,-3.83115 0.18555,-7.6595 0.30225,-11.4895c0.05077,-2.41076 0.09903,-4.82157 0.14453,-7.23243c0.03827,-1.15617 0.07654,-2.31234 0.11597,-3.50355c0.01071,-1.05787 0.02143,-2.11575 0.03247,-3.20567c0.01982,-0.93853 0.03964,-1.87705 0.06006,-2.84401c-0.19256,-0.66177 -0.38511,-1.32354 -0.5835,-2.00536c-1.6663,-0.03493 -3.33372,-0.03585 -5,0c0,-1.32 0,-2.64 0,-4c3.82925,-3.24906 7.10467,-3.37656 12,-3z"/>
        <path id="svg_3"
              d="m199.99219,38.54297c2.92968,0.66687 4.74246,1.45819 7.00781,3.45703c2.69214,4.47563 3.3619,7.73691 3.29297,12.92969c-0.0145,1.93359 -0.0145,1.93359 -0.0293,3.90625c-0.02506,1.34636 -0.05045,2.69271 -0.07617,4.03906c-0.01506,1.36978 -0.02875,2.73957 -0.04101,4.10938c-0.03527,3.33894 -0.08457,6.67708 -0.14649,10.01562c2.31,-0.33 4.62,-0.66 7,-1c-0.33588,2.51913 -0.57355,3.67196 -2.625,5.25c-3.27177,1.03319 -5.96658,1.05986 -9.375,0.75c-1.68945,-1.09765 -1.68945,-1.09765 -3,-3c-0.38476,-3.04687 -0.38476,-3.04687 -0.40625,-6.75c-0.01083,-0.65452 -0.02167,-1.30904 -0.03283,-1.9834c-0.04583,-2.79582 -0.05734,-5.59156 -0.07215,-8.38769c-0.01569,-2.04331 -0.04869,-4.08584 -0.08252,-6.12891c-0.00709,-1.22203 -0.01418,-2.44406 -0.02148,-3.70312c-0.14936,-3.00255 -0.14936,-3.00255 -1.66406,-4.96875c-2.56403,-1.60652 -4.89547,-1.20688 -7.78711,-0.71875c-3.85601,1.27754 -5.23234,4.3037 -7.01954,7.71093c-1.30956,4.19733 -1.20378,8.18481 -1.16406,12.55469c-0.00773,0.85852 -0.01547,1.71703 -0.02344,2.60156c0.00258,0.825 0.00516,1.65 0.00782,2.5c0.00225,0.74847 0.00451,1.49693 0.00683,2.26807c0.14877,2.32095 0.14877,2.32095 2.25879,5.00537c0,0.99 0,1.98 0,3c-2.74301,0.22961 -5.263,0.27766 -8,0.1875c-0.76312,-0.01353 -1.52625,-0.02707 -2.3125,-0.04101c-1.89613,-0.03556 -3.7919,-0.08937 -5.6875,-0.14649c0.3125,-2 0.3125,-2 1,-4c0.99,0 1.98,0 3,0c0.64728,-4.362 0.51455,-8.7842 0.50098,-13.1897c-0.00097,-2.2356 0.04057,-4.46777 0.08496,-6.70288c0.00521,-1.40949 0.0079,-2.819 0.00781,-4.22851c0.00709,-1.2935 0.01418,-2.58699 0.02149,-3.91968c-0.20303,-0.97655 -0.40606,-1.95309 -0.61524,-2.95923c-2.47249,-1.05844 -2.47249,-1.05844 -5,-1c1,-3 1,-3 4,-5c2.71528,-0.66672 5.18021,-0.82096 8,-1c2.35953,2.35953 2.49142,3.77896 3,7c0.81791,-0.86625 0.81791,-0.86625 1.65235,-1.75c4.58688,-4.51632 7.70755,-7.38875 14.33984,-6.70703z"/>
        <path id="svg_6"
              d="m151,39c1.79363,1.79363 1.10994,4.21584 1.11186,6.60207c-0.00316,1.17344 -0.00316,1.17344 -0.00639,2.37059c0.01345,1.63738 0.02847,3.27475 0.04492,4.91211c0.02293,2.59686 0.03704,5.19234 0.02466,7.7893c-0.00875,2.4964 0.01991,4.98998 0.05542,7.48609c-0.01223,0.78432 -0.02446,1.56863 -0.03706,2.37672c-0.019,2.38339 -0.019,2.38339 0.80659,5.46312c3.0329,0.6534 3.0329,0.6534 6,0c-0.33588,2.51912 -0.57355,3.67196 -2.625,5.25c-3.27177,1.03319 -5.96659,1.05986 -9.375,0.75c-1.70972,-1.05005 -1.70972,-1.05005 -3,-3c-0.18867,-2.59128 -0.20722,-4.93403 -0.08203,-7.51172c0.0379,-1.49412 0.07499,-2.98826 0.11133,-4.48242c0.07481,-2.35784 0.1591,-4.7146 0.25854,-7.07153c0.08999,-2.27376 0.14369,-4.54609 0.19263,-6.82105c0.06057,-1.06863 0.06057,-1.06863 0.12236,-2.15886c0.10697,-2.15906 0.10697,-2.15906 -0.60283,-4.95442c-3.02045,-0.5928 -3.02045,-0.5928 -6,0c0.0625,-1.8125 0.0625,-1.8125 1,-4c4.02737,-2.16858 7.39867,-3.54133 12,-3z"/>
        <path id="svg_7" fill="white"
              d="m249.29297,48.14063c0.56332,0.28359 1.12664,0.56719 1.70703,0.85938c-0.05543,2.88256 -0.41564,5.1959 -1,8c-0.28424,1.67642 -0.28424,1.67642 -0.57422,3.38671c-0.33451,1.75764 -0.33451,1.75764 -0.67578,3.55079c-0.21141,1.12277 -0.42281,2.24554 -0.64062,3.40234c-0.3661,0.87785 -0.73219,1.7557 -1.10938,2.66016c-2.46875,0.85156 -2.46875,0.85156 -5,1c-2.18703,0.37907 -2.18703,0.37907 -4,1c-0.33,0.66 -0.66,1.32 -1,2c-0.66,0 -1.32,0 -2,0c-0.32502,-4.22525 -0.31793,-7.37824 2,-11c-0.55687,0.51562 -1.11375,1.03125 -1.6875,1.5625c-2.3125,1.4375 -2.3125,1.4375 -5,1.375c-2.3125,-0.9375 -2.3125,-0.9375 -3.22656,-2.78516c-0.02836,-0.71027 -0.05672,-1.42055 -0.08594,-2.15234c1.73828,-1.71094 1.73828,-1.71094 4.3125,-3.375c0.91652,-0.59555 1.83305,-1.1911 2.77734,-1.80469c0.96036,-0.60071 1.92071,-1.20141 2.91016,-1.82031c0.90879,-0.60071 1.81758,-1.20141 2.75391,-1.82032c6.58548,-4.2202 6.58548,-4.2202 9.53906,-4.03906z"/>
        <path id="svg_8" fill="#3688BD"
              d="m249,50c-0.28488,2.04263 -0.57822,4.08407 -0.875,6.125c-0.16242,1.13695 -0.32484,2.27391 -0.49219,3.44531c-0.61432,3.3295 -1.29071,6.31845 -2.63281,9.42969c-3,0.3125 -3,0.3125 -6,0c-0.66,0.33 -1.32,0.66 -2,1c0.41029,-4.51319 2.32133,-7.09341 5.03906,-10.54687c0.31711,-0.47954 0.63422,-0.95907 0.96094,-1.45313c-0.33,-0.33 -0.66,-0.66 -1,-1c-2.26794,1.76187 -4.41433,3.64337 -6.57813,5.53125c-2.42187,1.46875 -2.42187,1.46875 -5.21875,1.1875c-0.72703,-0.23719 -1.45406,-0.47438 -2.20312,-0.71875c3.25511,-3.45451 7.05179,-5.70164 11.0625,-8.1875c0.73283,-0.46342 1.46566,-0.92684 2.2207,-1.4043c1.05284,-0.65645 1.05284,-0.65645 2.12696,-1.32617c0.64074,-0.39985 1.28149,-0.7997 1.94165,-1.21167c1.64819,-0.87036 1.64819,-0.87036 3.64819,-0.87036z"/>
        <circle id="svg_9" r="5.5" cy="27" cx="147"/>
        <g stroke="null" id="svg_10">
            <path stroke="null" id="svg_4"
                  d="m37.83563,17.95451c3.29597,1.40303 6.12062,3.30748 9.072,5.42222c4.37502,2.72091 9.03717,3.72932 14.02037,2.71111c1.87325,-2.56824 1.87325,-2.56824 1.75255,-5.59167c0.23814,-0.83875 0.47628,-1.6775 0.72164,-2.54167c2.31952,-0.53423 4.20136,-0.25009 6.59782,0c-0.51412,11.09213 -0.51412,11.09213 -3.29891,14.45927c-4.36095,3.55329 -9.62827,3.44638 -14.84509,2.71111c-5.04005,-2.07492 -9.70098,-4.95359 -14.43273,-7.74856c-3.15164,-1.40681 -5.2896,-1.6877 -8.65964,-1.28848c-1.87493,2.39689 -2.43729,3.91214 -2.62882,7.06019c-0.22113,0.65237 -0.44226,1.30472 -0.67009,1.97685c-2.35243,0.883 -4.28338,1.06605 -6.59782,0c-1.02436,-2.7812 -0.62182,-5.2707 0,-8.13334c3.95718,-9.63403 10.05455,-10.1708 18.96873,-9.03704z"/>
            <path stroke="null" id="svg_5"
                  d="m40.35205,36.02859c2.71787,0.49636 5.15236,0.94137 7.42255,2.71111c0.44666,1.86413 0.44666,1.86413 0.4923,4.18713c0.03556,1.30248 0.03556,1.30248 0.07185,2.63127c0.00625,0.93951 0.01251,1.87902 0.01896,2.84699c0.01294,0.96026 0.02587,1.92052 0.0392,2.90987c0.02034,2.03127 0.03151,4.06268 0.03429,6.09407c0.01348,3.12792 0.084,6.25042 0.15685,9.37726c0.01263,1.96859 0.02188,3.93721 0.02738,5.90584c0.02796,0.94317 0.05592,1.88634 0.08473,2.85808c-0.0512,4.37802 -0.0512,4.37802 -0.92557,6.56727c-2.11003,1.1691 -3.40923,1.26015 -5.75028,0.95023c-1.67227,-0.95023 -1.67227,-0.95023 -2.33245,-2.77614c-0.21106,-2.78178 -0.17067,-5.46668 -0.06468,-8.25603c0.01051,-1.02299 0.02101,-2.04599 0.03183,-3.09998c0.04178,-3.28942 0.13494,-6.57445 0.22913,-9.86253c0.0372,-2.22036 0.07108,-4.4408 0.10148,-6.66128c0.08213,-5.46258 0.20654,-10.92256 0.36243,-16.38317z"/>
        </g>
    </g>
</svg>
